<svg xmlns="http://www.w3.org/2000/svg" viewBox="0 0 512 512">
  <circle cx="256" cy="256" r="240" fill="#000000" stroke="#B9A46A" stroke-width="12"/>
  
  <g fill="#B9A46A" transform="matrix(0.55 0 0 0.55 45 -85)" stroke="#B9A46A" stroke-width="22" stroke-linecap="round" stroke-linejoin="round">
    <path d="M 291.00 552.00 C 298.43 533.39 307.22 515.26 313.07 496.07 C 316.04 484.21 335.15 438.19 313.31 453.30 C 295.15 503.34 248.90 541.95 211.22 580.22 C 193.97 581.42 157.34 604.44 195.00 599.00 C 179.21 616.77 160.98 632.43 143.25 648.25 C 129.23 658.13 94.16 695.60 88.02 672.02 C 85.91 654.18 131.53 608.75 118.00 646.00 C 146.30 620.10 102.69 613.25 93.25 642.25 C 80.10 655.60 66.95 702.81 99.77 686.77 C 118.57 675.19 135.85 661.09 153.25 647.25 C 183.50 609.28 223.13 586.80 270.00 580.00 C 262.50 602.34 241.58 623.23 245.75 647.25 C 261.75 642.47 260.49 604.76 275.08 588.08 C 285.11 565.03 316.62 566.92 335.93 553.93 C 382.14 527.42 435.72 526.91 488.00 520.00 C 461.52 510.62 421.77 527.38 391.00 527.00 C 411.16 517.97 430.53 506.82 449.31 495.31 C 463.86 491.01 505.81 459.26 469.07 462.07 C 400.76 469.84 344.84 512.99 291.00 552.00 M 313.00 545.00 C 357.68 506.67 411.83 472.62 471.22 469.78 C 430.73 510.15 370.52 535.46 313.00 545.00 M 227.00 574.00 C 254.29 543.72 285.40 515.38 308.00 482.00 C 305.14 503.00 295.26 525.07 286.23 545.23 C 275.90 564.99 245.47 562.76 227.00 574.00 M 352.00 542.00 C 332.04 550.94 311.55 559.72 291.00 567.00 C 304.27 546.22 331.45 545.46 352.00 542.00 M 293.00 556.00 C 291.34 558.53 288.71 561.83 286.00 564.00 C 287.19 560.37 288.62 556.56 293.00 556.00 M 279.00 560.00 C 270.12 585.88 232.52 583.97 210.00 591.00 C 229.31 574.24 255.69 568.93 279.00 560.00 M 206.00 588.00 C 203.66 592.85 197.06 595.27 193.00 594.00 C 196.54 591.01 201.31 588.82 206.00 588.00 Z" />
    <path d="M 539.00 628.00 C 576.71 602.59 617.00 576.74 646.75 539.75 C 657.29 529.44 690.79 481.62 661.31 494.31 C 650.20 514.42 635.45 532.95 618.00 548.00 C 624.98 517.85 602.06 556.16 590.00 560.00 C 608.02 546.29 590.79 529.74 581.92 551.92 C 566.43 571.07 590.98 575.72 600.00 559.00 C 620.30 568.96 635.06 528.41 653.00 518.00 C 613.18 581.14 546.25 622.04 481.70 653.70 C 469.20 661.82 406.04 680.01 440.92 682.92 C 535.53 629.96 637.94 595.19 745.00 579.00 C 673.29 578.24 604.51 602.44 539.00 628.00 Z" />
    <path d="M 537.00 560.00 C 552.92 521.88 514.36 576.07 497.00 578.00 C 512.81 565.81 507.20 540.44 490.70 562.70 C 476.42 571.82 466.08 573.02 450.00 580.00 C 475.23 546.75 421.64 583.05 406.00 588.00 C 415.61 564.19 382.26 589.03 373.00 594.00 C 372.97 571.78 346.59 611.83 331.00 609.00 C 354.06 574.98 313.36 596.96 300.00 610.00 C 296.73 594.38 272.08 632.35 294.77 626.77 C 305.59 621.02 310.03 605.90 323.00 603.00 C 307.78 633.83 345.73 610.45 356.00 600.00 C 358.06 622.65 382.32 590.96 394.00 589.00 C 384.55 617.67 421.05 585.27 433.00 583.00 C 430.30 606.37 459.14 579.37 469.00 575.00 C 464.16 589.41 486.83 569.88 493.00 566.00 C 488.40 573.91 471.65 597.92 492.77 588.77 C 503.49 582.19 513.10 574.00 523.00 566.00 C 530.73 576.89 543.87 560.50 554.00 560.00 C 542.20 581.03 528.80 602.87 510.00 619.00 C 516.12 610.76 523.53 601.74 528.00 592.00 C 507.26 603.94 498.81 632.24 481.00 648.00 C 520.84 629.84 541.89 586.48 575.00 561.00 C 569.67 561.82 566.42 567.56 561.00 568.00 C 578.12 545.98 548.74 554.75 537.00 560.00 Z" />
  </g>
</svg>
